<?xml version="1.0" encoding="UTF-8" standalone="no"?>
<!DOCTYPE svg PUBLIC "-//W3C//DTD SVG 1.1//EN"
 "http://www.w3.org/Graphics/SVG/1.1/DTD/svg11.dtd">
<!-- Generated by graphviz version 2.47.1 (0)
 -->
<!-- Title: G Pages: 1 -->
<svg width="1256pt" height="1340pt"
 viewBox="0.00 0.00 1256.29 1340.00" xmlns="http://www.w3.org/2000/svg" xmlns:xlink="http://www.w3.org/1999/xlink">
<g id="graph0" class="graph" transform="scale(1 1) rotate(0) translate(4 1336)">
<title>G</title>
<polygon fill="white" stroke="transparent" points="-4,4 -4,-1336 1252.29,-1336 1252.29,4 -4,4"/>
<!-- START -->
<g id="node1" class="node">
<title>START</title>
<ellipse fill="red" stroke="red" cx="365" cy="-1314" rx="42.49" ry="18"/>
<text text-anchor="middle" x="365" y="-1310.3" font-family="Times,serif" font-size="14.00">START</text>
</g>
<!-- python&#45;numpy -->
<g id="node2" class="node">
<title>python&#45;numpy</title>
<ellipse fill="green" stroke="green" cx="365" cy="-1242" rx="77.19" ry="18"/>
<text text-anchor="middle" x="365" y="-1238.3" font-family="Times,serif" font-size="14.00">python&#45;numpy</text>
</g>
<!-- START&#45;&gt;python&#45;numpy -->
<g id="edge1" class="edge">
<title>START&#45;&gt;python&#45;numpy</title>
<path fill="none" stroke="black" d="M365,-1295.7C365,-1287.98 365,-1278.71 365,-1270.11"/>
<polygon fill="black" stroke="black" points="368.5,-1270.1 365,-1260.1 361.5,-1270.1 368.5,-1270.1"/>
</g>
<!-- cblas -->
<g id="node3" class="node">
<title>cblas</title>
<ellipse fill="green" stroke="green" cx="365" cy="-1170" rx="34.39" ry="18"/>
<text text-anchor="middle" x="365" y="-1166.3" font-family="Times,serif" font-size="14.00">cblas</text>
</g>
<!-- python&#45;numpy&#45;&gt;cblas -->
<g id="edge2" class="edge">
<title>python&#45;numpy&#45;&gt;cblas</title>
<path fill="none" stroke="#8b4513" d="M365,-1223.7C365,-1215.98 365,-1206.71 365,-1198.11"/>
<polygon fill="#8b4513" stroke="#8b4513" points="368.5,-1198.1 365,-1188.1 361.5,-1198.1 368.5,-1198.1"/>
</g>
<!-- lapack -->
<g id="node14" class="node">
<title>lapack</title>
<ellipse fill="green" stroke="green" cx="272" cy="-1170" rx="40.09" ry="18"/>
<text text-anchor="middle" x="272" y="-1166.3" font-family="Times,serif" font-size="14.00">lapack</text>
</g>
<!-- python&#45;numpy&#45;&gt;lapack -->
<g id="edge13" class="edge">
<title>python&#45;numpy&#45;&gt;lapack</title>
<path fill="none" stroke="#8b4513" d="M342.96,-1224.41C330.06,-1214.7 313.65,-1202.35 299.86,-1191.97"/>
<polygon fill="#8b4513" stroke="#8b4513" points="301.76,-1189.02 291.66,-1185.8 297.55,-1194.61 301.76,-1189.02"/>
</g>
<!-- python -->
<g id="node15" class="node">
<title>python</title>
<ellipse fill="green" stroke="green" cx="994" cy="-1170" rx="42.79" ry="18"/>
<text text-anchor="middle" x="994" y="-1166.3" font-family="Times,serif" font-size="14.00">python</text>
</g>
<!-- python&#45;numpy&#45;&gt;python -->
<g id="edge15" class="edge">
<title>python&#45;numpy&#45;&gt;python</title>
<path fill="none" stroke="#8b4513" d="M433.21,-1233.41C560.27,-1219.27 830.5,-1189.19 943.09,-1176.66"/>
<polygon fill="#8b4513" stroke="#8b4513" points="943.62,-1180.13 953.17,-1175.54 942.84,-1173.17 943.62,-1180.13"/>
</g>
<!-- blas -->
<g id="node4" class="node">
<title>blas</title>
<ellipse fill="green" stroke="green" cx="272" cy="-1098" rx="29.8" ry="18"/>
<text text-anchor="middle" x="272" y="-1094.3" font-family="Times,serif" font-size="14.00">blas</text>
</g>
<!-- cblas&#45;&gt;blas -->
<g id="edge3" class="edge">
<title>cblas&#45;&gt;blas</title>
<path fill="none" stroke="#8b4513" d="M346.18,-1154.83C332.38,-1144.45 313.48,-1130.23 298.21,-1118.73"/>
<polygon fill="#8b4513" stroke="#8b4513" points="300.25,-1115.89 290.15,-1112.67 296.04,-1121.48 300.25,-1115.89"/>
</g>
<!-- openblas -->
<g id="node5" class="node">
<title>openblas</title>
<ellipse fill="green" stroke="green" cx="52" cy="-450" rx="51.99" ry="18"/>
<text text-anchor="middle" x="52" y="-446.3" font-family="Times,serif" font-size="14.00">openblas</text>
</g>
<!-- blas&#45;&gt;openblas -->
<g id="edge4" class="edge">
<title>blas&#45;&gt;openblas</title>
<path fill="none" stroke="grey" d="M242.91,-1093.63C209.26,-1088.36 153.91,-1075.31 118,-1044 84.59,-1014.87 73,-999.32 73,-955 73,-955 73,-955 73,-593 73,-547.64 62.38,-495.01 56.25,-468.37"/>
</g>
<!-- gcc&#45;libs -->
<g id="node6" class="node">
<title>gcc&#45;libs</title>
<ellipse fill="green" stroke="green" cx="264" cy="-306" rx="46.29" ry="18"/>
<text text-anchor="middle" x="264" y="-302.3" font-family="Times,serif" font-size="14.00">gcc&#45;libs</text>
</g>
<!-- openblas&#45;&gt;gcc&#45;libs -->
<g id="edge5" class="edge">
<title>openblas&#45;&gt;gcc&#45;libs</title>
<path fill="none" stroke="#8b4513" d="M74.68,-433.8C112.96,-408.17 190.38,-356.31 233.41,-327.49"/>
<polygon fill="#8b4513" stroke="#8b4513" points="235.43,-330.35 241.79,-321.87 231.53,-324.53 235.43,-330.35"/>
</g>
<!-- glibc&gt;=2.27 -->
<g id="node7" class="node">
<title>glibc&gt;=2.27</title>
<ellipse fill="green" stroke="green" cx="264" cy="-234" rx="69.59" ry="18"/>
<text text-anchor="middle" x="264" y="-230.3" font-family="Times,serif" font-size="14.00">glibc&gt;=2.27</text>
</g>
<!-- gcc&#45;libs&#45;&gt;glibc&gt;=2.27 -->
<g id="edge6" class="edge">
<title>gcc&#45;libs&#45;&gt;glibc&gt;=2.27</title>
<path fill="none" stroke="#8b4513" d="M264,-287.7C264,-279.98 264,-270.71 264,-262.11"/>
<polygon fill="#8b4513" stroke="#8b4513" points="267.5,-262.1 264,-252.1 260.5,-262.1 267.5,-262.1"/>
</g>
<!-- glibc -->
<g id="node8" class="node">
<title>glibc</title>
<ellipse fill="green" stroke="green" cx="803" cy="-162" rx="33.29" ry="18"/>
<text text-anchor="middle" x="803" y="-158.3" font-family="Times,serif" font-size="14.00">glibc</text>
</g>
<!-- glibc&gt;=2.27&#45;&gt;glibc -->
<g id="edge7" class="edge">
<title>glibc&gt;=2.27&#45;&gt;glibc</title>
<path fill="none" stroke="grey" d="M315.85,-221.8C326.46,-219.71 337.56,-217.66 348,-216 505.66,-190.91 695.85,-172.58 770.6,-165.83"/>
</g>
<!-- linux&#45;api&#45;headers&gt;=4.10 -->
<g id="node9" class="node">
<title>linux&#45;api&#45;headers&gt;=4.10</title>
<ellipse fill="green" stroke="green" cx="619" cy="-90" rx="126.18" ry="18"/>
<text text-anchor="middle" x="619" y="-86.3" font-family="Times,serif" font-size="14.00">linux&#45;api&#45;headers&gt;=4.10</text>
</g>
<!-- glibc&#45;&gt;linux&#45;api&#45;headers&gt;=4.10 -->
<g id="edge8" class="edge">
<title>glibc&#45;&gt;linux&#45;api&#45;headers&gt;=4.10</title>
<path fill="none" stroke="#8b4513" d="M776.63,-150.97C749.11,-140.5 705.24,-123.81 670.76,-110.69"/>
<polygon fill="#8b4513" stroke="#8b4513" points="671.89,-107.38 661.3,-107.09 669.4,-113.92 671.89,-107.38"/>
</g>
<!-- tzdata -->
<g id="node11" class="node">
<title>tzdata</title>
<ellipse fill="green" stroke="green" cx="803" cy="-90" rx="40.09" ry="18"/>
<text text-anchor="middle" x="803" y="-86.3" font-family="Times,serif" font-size="14.00">tzdata</text>
</g>
<!-- glibc&#45;&gt;tzdata -->
<g id="edge10" class="edge">
<title>glibc&#45;&gt;tzdata</title>
<path fill="none" stroke="#8b4513" d="M803,-143.7C803,-135.98 803,-126.71 803,-118.11"/>
<polygon fill="#8b4513" stroke="#8b4513" points="806.5,-118.1 803,-108.1 799.5,-118.1 806.5,-118.1"/>
</g>
<!-- filesystem -->
<g id="node12" class="node">
<title>filesystem</title>
<ellipse fill="green" stroke="green" cx="920" cy="-90" rx="58.49" ry="18"/>
<text text-anchor="middle" x="920" y="-86.3" font-family="Times,serif" font-size="14.00">filesystem</text>
</g>
<!-- glibc&#45;&gt;filesystem -->
<g id="edge11" class="edge">
<title>glibc&#45;&gt;filesystem</title>
<path fill="none" stroke="#8b4513" d="M824.45,-148.16C841.5,-137.96 865.68,-123.5 885.45,-111.67"/>
<polygon fill="#8b4513" stroke="#8b4513" points="887.39,-114.58 894.18,-106.45 883.8,-108.58 887.39,-114.58"/>
</g>
<!-- linux&#45;api&#45;headers -->
<g id="node10" class="node">
<title>linux&#45;api&#45;headers</title>
<ellipse fill="green" stroke="green" cx="619" cy="-18" rx="90.18" ry="18"/>
<text text-anchor="middle" x="619" y="-14.3" font-family="Times,serif" font-size="14.00">linux&#45;api&#45;headers</text>
</g>
<!-- linux&#45;api&#45;headers&gt;=4.10&#45;&gt;linux&#45;api&#45;headers -->
<g id="edge9" class="edge">
<title>linux&#45;api&#45;headers&gt;=4.10&#45;&gt;linux&#45;api&#45;headers</title>
<path fill="none" stroke="grey" d="M619,-71.7C619,-60.85 619,-46.92 619,-36.1"/>
</g>
<!-- iana&#45;etc -->
<g id="node13" class="node">
<title>iana&#45;etc</title>
<ellipse fill="green" stroke="green" cx="920" cy="-18" rx="47.39" ry="18"/>
<text text-anchor="middle" x="920" y="-14.3" font-family="Times,serif" font-size="14.00">iana&#45;etc</text>
</g>
<!-- filesystem&#45;&gt;iana&#45;etc -->
<g id="edge12" class="edge">
<title>filesystem&#45;&gt;iana&#45;etc</title>
<path fill="none" stroke="#8b4513" d="M920,-71.7C920,-63.98 920,-54.71 920,-46.11"/>
<polygon fill="#8b4513" stroke="#8b4513" points="923.5,-46.1 920,-36.1 916.5,-46.1 923.5,-46.1"/>
</g>
<!-- lapack&#45;&gt;blas -->
<g id="edge14" class="edge">
<title>lapack&#45;&gt;blas</title>
<path fill="none" stroke="#8b4513" d="M272,-1151.7C272,-1143.98 272,-1134.71 272,-1126.11"/>
<polygon fill="#8b4513" stroke="#8b4513" points="275.5,-1126.1 272,-1116.1 268.5,-1126.1 275.5,-1126.1"/>
</g>
<!-- bzip2 -->
<g id="node16" class="node">
<title>bzip2</title>
<ellipse fill="green" stroke="green" cx="956" cy="-810" rx="36.29" ry="18"/>
<text text-anchor="middle" x="956" y="-806.3" font-family="Times,serif" font-size="14.00">bzip2</text>
</g>
<!-- python&#45;&gt;bzip2 -->
<g id="edge16" class="edge">
<title>python&#45;&gt;bzip2</title>
<path fill="none" stroke="#8b4513" d="M986.31,-1151.91C975.2,-1125.62 956,-1073.45 956,-1027 956,-1027 956,-1027 956,-953 956,-913 956,-866.65 956,-838.08"/>
<polygon fill="#8b4513" stroke="#8b4513" points="959.5,-838.05 956,-828.05 952.5,-838.05 959.5,-838.05"/>
</g>
<!-- expat -->
<g id="node23" class="node">
<title>expat</title>
<ellipse fill="green" stroke="green" cx="1058" cy="-954" rx="36.29" ry="18"/>
<text text-anchor="middle" x="1058" y="-950.3" font-family="Times,serif" font-size="14.00">expat</text>
</g>
<!-- python&#45;&gt;expat -->
<g id="edge31" class="edge">
<title>python&#45;&gt;expat</title>
<path fill="none" stroke="#8b4513" d="M999.12,-1151.85C1010.25,-1114.66 1036.65,-1026.37 1049.99,-981.77"/>
<polygon fill="#8b4513" stroke="#8b4513" points="1053.42,-982.52 1052.93,-971.94 1046.71,-980.51 1053.42,-982.52"/>
</g>
<!-- gdbm -->
<g id="node24" class="node">
<title>gdbm</title>
<ellipse fill="green" stroke="green" cx="766" cy="-810" rx="37.09" ry="18"/>
<text text-anchor="middle" x="766" y="-806.3" font-family="Times,serif" font-size="14.00">gdbm</text>
</g>
<!-- python&#45;&gt;gdbm -->
<g id="edge33" class="edge">
<title>python&#45;&gt;gdbm</title>
<path fill="none" stroke="#8b4513" d="M964.36,-1156.95C920.65,-1136.99 844,-1092.62 844,-1027 844,-1027 844,-1027 844,-953 844,-906.35 811.26,-860.55 788.2,-834.07"/>
<polygon fill="#8b4513" stroke="#8b4513" points="790.69,-831.6 781.41,-826.5 785.48,-836.28 790.69,-831.6"/>
</g>
<!-- libffi -->
<g id="node25" class="node">
<title>libffi</title>
<ellipse fill="green" stroke="green" cx="1100" cy="-666" rx="32.49" ry="18"/>
<text text-anchor="middle" x="1100" y="-662.3" font-family="Times,serif" font-size="14.00">libffi</text>
</g>
<!-- python&#45;&gt;libffi -->
<g id="edge37" class="edge">
<title>python&#45;&gt;libffi</title>
<path fill="none" stroke="#8b4513" d="M1019.9,-1155.41C1057.3,-1133.69 1122,-1087.41 1122,-1027 1122,-1027 1122,-1027 1122,-809 1122,-768.52 1113.16,-722.3 1106.68,-693.89"/>
<polygon fill="#8b4513" stroke="#8b4513" points="1110.04,-692.85 1104.34,-683.92 1103.22,-694.45 1110.04,-692.85"/>
</g>
<!-- libnsl -->
<g id="node26" class="node">
<title>libnsl</title>
<ellipse fill="green" stroke="green" cx="589" cy="-1098" rx="36.29" ry="18"/>
<text text-anchor="middle" x="589" y="-1094.3" font-family="Times,serif" font-size="14.00">libnsl</text>
</g>
<!-- python&#45;&gt;libnsl -->
<g id="edge39" class="edge">
<title>python&#45;&gt;libnsl</title>
<path fill="none" stroke="#8b4513" d="M955.16,-1162.29C879.47,-1149.2 712.64,-1120.37 632.99,-1106.6"/>
<polygon fill="#8b4513" stroke="#8b4513" points="633.26,-1103.1 622.81,-1104.84 632.06,-1110 633.26,-1103.1"/>
</g>
<!-- openssl -->
<g id="node35" class="node">
<title>openssl</title>
<ellipse fill="green" stroke="green" cx="889" cy="-738" rx="46.29" ry="18"/>
<text text-anchor="middle" x="889" y="-734.3" font-family="Times,serif" font-size="14.00">openssl</text>
</g>
<!-- python&#45;&gt;openssl -->
<g id="edge61" class="edge">
<title>python&#45;&gt;openssl</title>
<path fill="none" stroke="#8b4513" d="M995.4,-1151.97C1000.98,-1082.49 1020.39,-822.63 1001,-792 987.3,-770.37 962.14,-757.4 939.13,-749.71"/>
<polygon fill="#8b4513" stroke="#8b4513" points="940.02,-746.32 929.44,-746.72 937.96,-753.01 940.02,-746.32"/>
</g>
<!-- libxcrypt -->
<g id="node37" class="node">
<title>libxcrypt</title>
<ellipse fill="green" stroke="green" cx="1158" cy="-594" rx="51.99" ry="18"/>
<text text-anchor="middle" x="1158" y="-590.3" font-family="Times,serif" font-size="14.00">libxcrypt</text>
</g>
<!-- python&#45;&gt;libxcrypt -->
<g id="edge59" class="edge">
<title>python&#45;&gt;libxcrypt</title>
<path fill="none" stroke="#8b4513" d="M1026.4,-1158.03C1074.7,-1139.38 1160,-1096.59 1160,-1027 1160,-1027 1160,-1027 1160,-737 1160,-696.99 1159.19,-650.65 1158.6,-622.08"/>
<polygon fill="#8b4513" stroke="#8b4513" points="1162.1,-621.97 1158.39,-612.05 1155.1,-622.12 1162.1,-621.97"/>
</g>
<!-- zlib -->
<g id="node38" class="node">
<title>zlib</title>
<ellipse fill="green" stroke="green" cx="1221" cy="-522" rx="27.1" ry="18"/>
<text text-anchor="middle" x="1221" y="-518.3" font-family="Times,serif" font-size="14.00">zlib</text>
</g>
<!-- python&#45;&gt;zlib -->
<g id="edge62" class="edge">
<title>python&#45;&gt;zlib</title>
<path fill="none" stroke="#8b4513" d="M1034.56,-1164.08C1103.94,-1153.15 1238,-1120 1238,-1027 1238,-1027 1238,-1027 1238,-665 1238,-624.71 1231.17,-578.44 1226.16,-549.96"/>
<polygon fill="#8b4513" stroke="#8b4513" points="1229.58,-549.19 1224.35,-539.97 1222.69,-550.43 1229.58,-549.19"/>
</g>
<!-- bzip2&#45;&gt;glibc -->
<g id="edge17" class="edge">
<title>bzip2&#45;&gt;glibc</title>
<path fill="none" stroke="#8b4513" d="M957.38,-791.96C959.42,-765.32 963,-712.17 963,-667 963,-667 963,-667 963,-305 963,-239.33 886.67,-196.63 839.45,-176.5"/>
<polygon fill="#8b4513" stroke="#8b4513" points="840.72,-173.24 830.14,-172.66 838.05,-179.71 840.72,-173.24"/>
</g>
<!-- sh -->
<g id="node17" class="node">
<title>sh</title>
<ellipse fill="green" stroke="green" cx="618" cy="-738" rx="27" ry="18"/>
<text text-anchor="middle" x="618" y="-734.3" font-family="Times,serif" font-size="14.00">sh</text>
</g>
<!-- bzip2&#45;&gt;sh -->
<g id="edge18" class="edge">
<title>bzip2&#45;&gt;sh</title>
<path fill="none" stroke="#8b4513" d="M928.52,-797.96C922.48,-795.78 916.07,-793.66 910,-792 819.65,-767.31 710.37,-750.96 654.61,-743.56"/>
<polygon fill="#8b4513" stroke="#8b4513" points="654.88,-740.06 644.51,-742.24 653.98,-747 654.88,-740.06"/>
</g>
<!-- bash -->
<g id="node18" class="node">
<title>bash</title>
<ellipse fill="green" stroke="green" cx="616" cy="-666" rx="32.49" ry="18"/>
<text text-anchor="middle" x="616" y="-662.3" font-family="Times,serif" font-size="14.00">bash</text>
</g>
<!-- sh&#45;&gt;bash -->
<g id="edge19" class="edge">
<title>sh&#45;&gt;bash</title>
<path fill="none" stroke="grey" d="M617.5,-719.7C617.19,-708.85 616.79,-694.92 616.48,-684.1"/>
</g>
<!-- bash&#45;&gt;glibc -->
<g id="edge29" class="edge">
<title>bash&#45;&gt;glibc</title>
<path fill="none" stroke="#8b4513" d="M646.12,-658.48C671.53,-651.39 706.89,-637.49 727,-612 752.04,-580.24 746,-563.45 746,-523 746,-523 746,-523 746,-305 746,-264.03 753.66,-253.57 770,-216 774.23,-206.26 780.06,-196.21 785.64,-187.52"/>
<polygon fill="#8b4513" stroke="#8b4513" points="788.66,-189.29 791.28,-179.02 782.83,-185.41 788.66,-189.29"/>
</g>
<!-- readline -->
<g id="node19" class="node">
<title>readline</title>
<ellipse fill="green" stroke="green" cx="573" cy="-522" rx="48.99" ry="18"/>
<text text-anchor="middle" x="573" y="-518.3" font-family="Times,serif" font-size="14.00">readline</text>
</g>
<!-- bash&#45;&gt;readline -->
<g id="edge20" class="edge">
<title>bash&#45;&gt;readline</title>
<path fill="none" stroke="#8b4513" d="M585.53,-659.71C559.14,-653.35 522.54,-639.82 505,-612 496.46,-598.47 497.97,-590.38 505,-576 511.77,-562.12 524.14,-550.82 536.48,-542.27"/>
<polygon fill="#8b4513" stroke="#8b4513" points="538.45,-545.17 544.95,-536.8 534.65,-539.29 538.45,-545.17"/>
</g>
<!-- ncurses -->
<g id="node20" class="node">
<title>ncurses</title>
<ellipse fill="green" stroke="green" cx="438" cy="-378" rx="46.59" ry="18"/>
<text text-anchor="middle" x="438" y="-374.3" font-family="Times,serif" font-size="14.00">ncurses</text>
</g>
<!-- bash&#45;&gt;ncurses -->
<g id="edge30" class="edge">
<title>bash&#45;&gt;ncurses</title>
<path fill="none" stroke="#8b4513" d="M586.18,-658.74C559.14,-651.65 519.83,-637.59 495,-612 436.46,-551.68 436.2,-516.05 437,-432 437.07,-423.68 437.22,-414.63 437.38,-406.4"/>
<polygon fill="#8b4513" stroke="#8b4513" points="440.88,-406.25 437.59,-396.18 433.88,-406.11 440.88,-406.25"/>
</g>
<!-- libreadline.so=8&#45;64 -->
<g id="node22" class="node">
<title>libreadline.so=8&#45;64</title>
<ellipse fill="green" stroke="green" cx="616" cy="-594" rx="102.08" ry="18"/>
<text text-anchor="middle" x="616" y="-590.3" font-family="Times,serif" font-size="14.00">libreadline.so=8&#45;64</text>
</g>
<!-- bash&#45;&gt;libreadline.so=8&#45;64 -->
<g id="edge27" class="edge">
<title>bash&#45;&gt;libreadline.so=8&#45;64</title>
<path fill="none" stroke="#8b4513" d="M616,-647.7C616,-639.98 616,-630.71 616,-622.11"/>
<polygon fill="#8b4513" stroke="#8b4513" points="619.5,-622.1 616,-612.1 612.5,-622.1 619.5,-622.1"/>
</g>
<!-- readline&#45;&gt;glibc -->
<g id="edge21" class="edge">
<title>readline&#45;&gt;glibc</title>
<path fill="none" stroke="#8b4513" d="M613.99,-512.21C639.28,-504.68 670.36,-491.23 689,-468 714.31,-436.46 708,-419.45 708,-379 708,-379 708,-379 708,-305 708,-264.03 708.98,-249.89 732,-216 741.85,-201.49 757.01,-189.39 770.79,-180.43"/>
<polygon fill="#8b4513" stroke="#8b4513" points="772.91,-183.24 779.59,-175.01 769.24,-177.28 772.91,-183.24"/>
</g>
<!-- readline&#45;&gt;ncurses -->
<g id="edge22" class="edge">
<title>readline&#45;&gt;ncurses</title>
<path fill="none" stroke="#8b4513" d="M532.01,-512.21C506.71,-504.68 475.63,-491.23 457,-468 443.13,-450.72 438.75,-425.66 437.63,-406.53"/>
<polygon fill="#8b4513" stroke="#8b4513" points="441.12,-406.21 437.3,-396.33 434.12,-406.44 441.12,-406.21"/>
</g>
<!-- libncursesw.so=6&#45;64 -->
<g id="node21" class="node">
<title>libncursesw.so=6&#45;64</title>
<ellipse fill="green" stroke="green" cx="573" cy="-450" rx="106.68" ry="18"/>
<text text-anchor="middle" x="573" y="-446.3" font-family="Times,serif" font-size="14.00">libncursesw.so=6&#45;64</text>
</g>
<!-- readline&#45;&gt;libncursesw.so=6&#45;64 -->
<g id="edge25" class="edge">
<title>readline&#45;&gt;libncursesw.so=6&#45;64</title>
<path fill="none" stroke="#8b4513" d="M573,-503.7C573,-495.98 573,-486.71 573,-478.11"/>
<polygon fill="#8b4513" stroke="#8b4513" points="576.5,-478.1 573,-468.1 569.5,-478.1 576.5,-478.1"/>
</g>
<!-- ncurses&#45;&gt;gcc&#45;libs -->
<g id="edge24" class="edge">
<title>ncurses&#45;&gt;gcc&#45;libs</title>
<path fill="none" stroke="#8b4513" d="M406.89,-364.49C378.19,-352.94 335.41,-335.73 304.14,-323.15"/>
<polygon fill="#8b4513" stroke="#8b4513" points="305.42,-319.89 294.83,-319.41 302.8,-326.39 305.42,-319.89"/>
</g>
<!-- ncurses&#45;&gt;glibc -->
<g id="edge23" class="edge">
<title>ncurses&#45;&gt;glibc</title>
<path fill="none" stroke="#8b4513" d="M460.1,-361.95C503.85,-332.41 604.95,-265.46 694,-216 718.51,-202.38 747.04,-188.58 768.77,-178.47"/>
<polygon fill="#8b4513" stroke="#8b4513" points="770.32,-181.61 777.93,-174.24 767.38,-175.26 770.32,-181.61"/>
</g>
<!-- libncursesw.so=6&#45;64&#45;&gt;ncurses -->
<g id="edge26" class="edge">
<title>libncursesw.so=6&#45;64&#45;&gt;ncurses</title>
<path fill="none" stroke="grey" d="M541.68,-432.76C518.47,-420.73 487.16,-404.49 465.03,-393.02"/>
</g>
<!-- libreadline.so=8&#45;64&#45;&gt;readline -->
<g id="edge28" class="edge">
<title>libreadline.so=8&#45;64&#45;&gt;readline</title>
<path fill="none" stroke="grey" d="M605.59,-576.05C598.83,-565.05 590.05,-550.76 583.31,-539.79"/>
</g>
<!-- expat&#45;&gt;glibc -->
<g id="edge32" class="edge">
<title>expat&#45;&gt;glibc</title>
<path fill="none" stroke="#8b4513" d="M1056.52,-935.88C1052.22,-884.37 1040,-726.31 1040,-595 1040,-595 1040,-595 1040,-305 1040,-215.12 913.02,-180.74 844.95,-168.76"/>
<polygon fill="#8b4513" stroke="#8b4513" points="845.4,-165.29 834.96,-167.09 844.24,-172.2 845.4,-165.29"/>
</g>
<!-- gdbm&#45;&gt;glibc -->
<g id="edge34" class="edge">
<title>gdbm&#45;&gt;glibc</title>
<path fill="none" stroke="#8b4513" d="M773.55,-792.19C788.83,-756.6 822,-670.66 822,-595 822,-595 822,-595 822,-305 822,-264.64 814.36,-218.39 808.77,-189.94"/>
<polygon fill="#8b4513" stroke="#8b4513" points="812.16,-189.06 806.75,-179.95 805.3,-190.45 812.16,-189.06"/>
</g>
<!-- gdbm&#45;&gt;sh -->
<g id="edge35" class="edge">
<title>gdbm&#45;&gt;sh</title>
<path fill="none" stroke="#8b4513" d="M740.22,-796.81C714.84,-784.81 676.07,-766.47 649.02,-753.68"/>
<polygon fill="#8b4513" stroke="#8b4513" points="650.17,-750.35 639.63,-749.23 647.18,-756.67 650.17,-750.35"/>
</g>
<!-- gdbm&#45;&gt;libreadline.so=8&#45;64 -->
<g id="edge36" class="edge">
<title>gdbm&#45;&gt;libreadline.so=8&#45;64</title>
<path fill="none" stroke="#8b4513" d="M755.19,-792.31C735.99,-762.8 694.41,-699.67 657,-648 650.27,-638.72 642.65,-628.73 635.82,-619.96"/>
<polygon fill="#8b4513" stroke="#8b4513" points="638.49,-617.69 629.57,-611.98 632.98,-622.01 638.49,-617.69"/>
</g>
<!-- libffi&#45;&gt;glibc -->
<g id="edge38" class="edge">
<title>libffi&#45;&gt;glibc</title>
<path fill="none" stroke="#8b4513" d="M1095.65,-648.08C1089.24,-621.6 1078,-568.65 1078,-523 1078,-523 1078,-523 1078,-305 1078,-264.03 1083.75,-244.16 1054,-216 1024.42,-188.02 909.08,-172.97 845.55,-166.66"/>
<polygon fill="#8b4513" stroke="#8b4513" points="845.73,-163.16 835.44,-165.68 845.06,-170.13 845.73,-163.16"/>
</g>
<!-- libnsl&#45;&gt;glibc -->
<g id="edge40" class="edge">
<title>libnsl&#45;&gt;glibc</title>
<path fill="none" stroke="#8b4513" d="M553.52,-1093.7C446.14,-1082.75 132,-1043.17 132,-955 132,-955 132,-955 132,-305 132,-258.96 145.98,-240.44 185,-216 233.48,-185.63 627.27,-169.16 759.72,-164.44"/>
<polygon fill="#8b4513" stroke="#8b4513" points="760.02,-167.93 769.89,-164.08 759.78,-160.94 760.02,-167.93"/>
</g>
<!-- libtirpc -->
<g id="node27" class="node">
<title>libtirpc</title>
<ellipse fill="green" stroke="green" cx="589" cy="-1026" rx="44.39" ry="18"/>
<text text-anchor="middle" x="589" y="-1022.3" font-family="Times,serif" font-size="14.00">libtirpc</text>
</g>
<!-- libnsl&#45;&gt;libtirpc -->
<g id="edge41" class="edge">
<title>libnsl&#45;&gt;libtirpc</title>
<path fill="none" stroke="#8b4513" d="M589,-1079.7C589,-1071.98 589,-1062.71 589,-1054.11"/>
<polygon fill="#8b4513" stroke="#8b4513" points="592.5,-1054.1 589,-1044.1 585.5,-1054.1 592.5,-1054.1"/>
</g>
<!-- krb5 -->
<g id="node28" class="node">
<title>krb5</title>
<ellipse fill="green" stroke="green" cx="589" cy="-954" rx="32.49" ry="18"/>
<text text-anchor="middle" x="589" y="-950.3" font-family="Times,serif" font-size="14.00">krb5</text>
</g>
<!-- libtirpc&#45;&gt;krb5 -->
<g id="edge42" class="edge">
<title>libtirpc&#45;&gt;krb5</title>
<path fill="none" stroke="#8b4513" d="M589,-1007.7C589,-999.98 589,-990.71 589,-982.11"/>
<polygon fill="#8b4513" stroke="#8b4513" points="592.5,-982.1 589,-972.1 585.5,-982.1 592.5,-982.1"/>
</g>
<!-- krb5&#45;&gt;glibc -->
<g id="edge43" class="edge">
<title>krb5&#45;&gt;glibc</title>
<path fill="none" stroke="#8b4513" d="M617.92,-945.21C641.07,-937.49 672.61,-923.37 691,-900 694.33,-895.76 784,-528.39 784,-523 784,-523 784,-523 784,-305 784,-264.64 791.63,-218.39 797.22,-189.94"/>
<polygon fill="#8b4513" stroke="#8b4513" points="800.69,-190.45 799.24,-179.95 793.83,-189.06 800.69,-190.45"/>
</g>
<!-- e2fsprogs -->
<g id="node29" class="node">
<title>e2fsprogs</title>
<ellipse fill="green" stroke="green" cx="462" cy="-810" rx="56.59" ry="18"/>
<text text-anchor="middle" x="462" y="-806.3" font-family="Times,serif" font-size="14.00">e2fsprogs</text>
</g>
<!-- krb5&#45;&gt;e2fsprogs -->
<g id="edge44" class="edge">
<title>krb5&#45;&gt;e2fsprogs</title>
<path fill="none" stroke="#8b4513" d="M581.37,-936.26C572.19,-917.31 555.44,-886.21 535,-864 523.88,-851.92 509.63,-840.85 496.67,-831.99"/>
<polygon fill="#8b4513" stroke="#8b4513" points="498.23,-828.82 487.96,-826.22 494.37,-834.66 498.23,-828.82"/>
</g>
<!-- libss.so=2&#45;64 -->
<g id="node31" class="node">
<title>libss.so=2&#45;64</title>
<ellipse fill="green" stroke="green" cx="233" cy="-882" rx="73.39" ry="18"/>
<text text-anchor="middle" x="233" y="-878.3" font-family="Times,serif" font-size="14.00">libss.so=2&#45;64</text>
</g>
<!-- krb5&#45;&gt;libss.so=2&#45;64 -->
<g id="edge47" class="edge">
<title>krb5&#45;&gt;libss.so=2&#45;64</title>
<path fill="none" stroke="#8b4513" d="M558.56,-947.25C507.96,-937.66 403.36,-917.7 315,-900 309.15,-898.83 303.07,-897.6 296.99,-896.35"/>
<polygon fill="#8b4513" stroke="#8b4513" points="297.29,-892.84 286.79,-894.26 295.88,-899.7 297.29,-892.84"/>
</g>
<!-- libcom_err.so=2&#45;64 -->
<g id="node32" class="node">
<title>libcom_err.so=2&#45;64</title>
<ellipse fill="green" stroke="green" cx="425" cy="-882" rx="100.98" ry="18"/>
<text text-anchor="middle" x="425" y="-878.3" font-family="Times,serif" font-size="14.00">libcom_err.so=2&#45;64</text>
</g>
<!-- krb5&#45;&gt;libcom_err.so=2&#45;64 -->
<g id="edge49" class="edge">
<title>krb5&#45;&gt;libcom_err.so=2&#45;64</title>
<path fill="none" stroke="#8b4513" d="M564.09,-942.37C539.59,-931.91 501.59,-915.69 471.5,-902.85"/>
<polygon fill="#8b4513" stroke="#8b4513" points="472.6,-899.51 462.03,-898.81 469.86,-905.95 472.6,-899.51"/>
</g>
<!-- libldap -->
<g id="node33" class="node">
<title>libldap</title>
<ellipse fill="green" stroke="green" cx="624" cy="-882" rx="42.49" ry="18"/>
<text text-anchor="middle" x="624" y="-878.3" font-family="Times,serif" font-size="14.00">libldap</text>
</g>
<!-- krb5&#45;&gt;libldap -->
<g id="edge51" class="edge">
<title>krb5&#45;&gt;libldap</title>
<path fill="none" stroke="#8b4513" d="M597.29,-936.41C601.37,-928.25 606.39,-918.22 610.96,-909.07"/>
<polygon fill="#8b4513" stroke="#8b4513" points="614.18,-910.47 615.52,-899.96 607.91,-907.34 614.18,-910.47"/>
</g>
<!-- keyutils -->
<g id="node36" class="node">
<title>keyutils</title>
<ellipse fill="green" stroke="green" cx="618" cy="-810" rx="47.39" ry="18"/>
<text text-anchor="middle" x="618" y="-806.3" font-family="Times,serif" font-size="14.00">keyutils</text>
</g>
<!-- krb5&#45;&gt;keyutils -->
<g id="edge56" class="edge">
<title>krb5&#45;&gt;keyutils</title>
<path fill="none" stroke="#8b4513" d="M616.49,-944.27C636.65,-936.26 662.6,-922.2 675,-900 682.8,-886.03 681.39,-878.67 675,-864 669.59,-851.59 659.68,-840.77 649.62,-832.2"/>
<polygon fill="#8b4513" stroke="#8b4513" points="651.61,-829.31 641.61,-825.83 647.25,-834.79 651.61,-829.31"/>
</g>
<!-- e2fsprogs&#45;&gt;sh -->
<g id="edge45" class="edge">
<title>e2fsprogs&#45;&gt;sh</title>
<path fill="none" stroke="#8b4513" d="M493.56,-794.83C520.68,-782.67 559.57,-765.22 586.63,-753.07"/>
<polygon fill="#8b4513" stroke="#8b4513" points="588.33,-756.15 596.02,-748.86 585.47,-749.76 588.33,-756.15"/>
</g>
<!-- util&#45;linux&#45;libs -->
<g id="node30" class="node">
<title>util&#45;linux&#45;libs</title>
<ellipse fill="green" stroke="green" cx="263" cy="-738" rx="71.49" ry="18"/>
<text text-anchor="middle" x="263" y="-734.3" font-family="Times,serif" font-size="14.00">util&#45;linux&#45;libs</text>
</g>
<!-- e2fsprogs&#45;&gt;util&#45;linux&#45;libs -->
<g id="edge46" class="edge">
<title>e2fsprogs&#45;&gt;util&#45;linux&#45;libs</title>
<path fill="none" stroke="#8b4513" d="M425.5,-796.16C393.8,-785.01 347.63,-768.77 312.59,-756.44"/>
<polygon fill="#8b4513" stroke="#8b4513" points="313.62,-753.1 303.02,-753.08 311.29,-759.7 313.62,-753.1"/>
</g>
<!-- libss.so=2&#45;64&#45;&gt;e2fsprogs -->
<g id="edge48" class="edge">
<title>libss.so=2&#45;64&#45;&gt;e2fsprogs</title>
<path fill="none" stroke="grey" d="M277.15,-867.5C319.26,-854.63 382.1,-835.42 422.56,-823.05"/>
</g>
<!-- libcom_err.so=2&#45;64&#45;&gt;e2fsprogs -->
<g id="edge50" class="edge">
<title>libcom_err.so=2&#45;64&#45;&gt;e2fsprogs</title>
<path fill="none" stroke="grey" d="M433.95,-864.05C439.77,-853.05 447.32,-838.76 453.12,-827.79"/>
</g>
<!-- libldap&#45;&gt;e2fsprogs -->
<g id="edge55" class="edge">
<title>libldap&#45;&gt;e2fsprogs</title>
<path fill="none" stroke="#8b4513" d="M595.41,-868.65C569.94,-857.64 532.37,-841.41 503.59,-828.97"/>
<polygon fill="#8b4513" stroke="#8b4513" points="504.76,-825.66 494.19,-824.91 501.98,-832.09 504.76,-825.66"/>
</g>
<!-- libsasl -->
<g id="node34" class="node">
<title>libsasl</title>
<ellipse fill="green" stroke="green" cx="861" cy="-810" rx="40.09" ry="18"/>
<text text-anchor="middle" x="861" y="-806.3" font-family="Times,serif" font-size="14.00">libsasl</text>
</g>
<!-- libldap&#45;&gt;libsasl -->
<g id="edge52" class="edge">
<title>libldap&#45;&gt;libsasl</title>
<path fill="none" stroke="#8b4513" d="M659.17,-871.75C697.08,-861.63 759.1,-844.62 812,-828 814.91,-827.09 817.91,-826.11 820.92,-825.12"/>
<polygon fill="#8b4513" stroke="#8b4513" points="822.15,-828.4 830.51,-821.89 819.91,-821.77 822.15,-828.4"/>
</g>
<!-- libsasl&#45;&gt;openssl -->
<g id="edge53" class="edge">
<title>libsasl&#45;&gt;openssl</title>
<path fill="none" stroke="#8b4513" d="M867.77,-792.05C870.92,-784.18 874.75,-774.62 878.28,-765.79"/>
<polygon fill="#8b4513" stroke="#8b4513" points="881.62,-766.86 882.09,-756.28 875.12,-764.26 881.62,-766.86"/>
</g>
<!-- openssl&#45;&gt;glibc -->
<g id="edge54" class="edge">
<title>openssl&#45;&gt;glibc</title>
<path fill="none" stroke="#8b4513" d="M885.44,-720.04C880.19,-693.5 871,-640.48 871,-595 871,-595 871,-595 871,-305 871,-259.86 842.7,-213.87 822.62,-186.91"/>
<polygon fill="#8b4513" stroke="#8b4513" points="825.3,-184.65 816.43,-178.85 819.74,-188.92 825.3,-184.65"/>
</g>
<!-- keyutils&#45;&gt;glibc -->
<g id="edge57" class="edge">
<title>keyutils&#45;&gt;glibc</title>
<path fill="none" stroke="#8b4513" d="M583.2,-797.74C513.21,-774.02 362,-717 362,-667 362,-667 362,-667 362,-305 362,-221.82 649.85,-180.36 760.44,-167.5"/>
<polygon fill="#8b4513" stroke="#8b4513" points="761.03,-170.95 770.57,-166.34 760.24,-164 761.03,-170.95"/>
</g>
<!-- keyutils&#45;&gt;sh -->
<g id="edge58" class="edge">
<title>keyutils&#45;&gt;sh</title>
<path fill="none" stroke="#8b4513" d="M618,-791.7C618,-783.98 618,-774.71 618,-766.11"/>
<polygon fill="#8b4513" stroke="#8b4513" points="621.5,-766.1 618,-756.1 614.5,-766.1 621.5,-766.1"/>
</g>
<!-- libxcrypt&#45;&gt;glibc -->
<g id="edge60" class="edge">
<title>libxcrypt&#45;&gt;glibc</title>
<path fill="none" stroke="#8b4513" d="M1152.94,-575.68C1145.63,-549.11 1133,-496.56 1133,-451 1133,-451 1133,-451 1133,-305 1133,-261.45 1126.39,-242.71 1092,-216 1054.25,-186.69 916.92,-171.89 846.02,-166.06"/>
<polygon fill="#8b4513" stroke="#8b4513" points="845.89,-162.54 835.65,-165.24 845.34,-169.52 845.89,-162.54"/>
</g>
<!-- zlib&#45;&gt;glibc -->
<g id="edge63" class="edge">
<title>zlib&#45;&gt;glibc</title>
<path fill="none" stroke="#8b4513" d="M1216.06,-504.12C1208.77,-477.69 1196,-424.81 1196,-379 1196,-379 1196,-379 1196,-305 1196,-259.85 1184,-241.87 1147,-216 1099.19,-182.57 927.81,-169.42 846.46,-164.97"/>
<polygon fill="#8b4513" stroke="#8b4513" points="846.23,-161.46 836.06,-164.43 845.86,-168.45 846.23,-161.46"/>
</g>
</g>
</svg>
